<?xml version="1.0" encoding="UTF-8" standalone="no"?><svg xmlns="http://www.w3.org/2000/svg" xmlns:xlink="http://www.w3.org/1999/xlink" contentScriptType="application/ecmascript" contentStyleType="text/css" height="550px" preserveAspectRatio="none" style="width:1046px;height:550px;" version="1.1" viewBox="0 0 1046 550" width="1046px" zoomAndPan="magnify"><defs><filter height="300%" id="f1biwa2baqp84a" width="300%" x="-1" y="-1"><feGaussianBlur result="blurOut" stdDeviation="2.0"/><feColorMatrix in="blurOut" result="blurOut2" type="matrix" values="0 0 0 0 0 0 0 0 0 0 0 0 0 0 0 0 0 0 .4 0"/><feOffset dx="4.0" dy="4.0" in="blurOut2" result="blurOut3"/><feBlend in="SourceGraphic" in2="blurOut3" mode="normal"/></filter></defs><g><rect fill="#FFFFE0" height="30.9531" rx="3" ry="3" style="stroke: #000000; stroke-width: 0.5;" width="383" x="325" y="2"/><text fill="#000000" font-family="sans-serif" font-size="18" lengthAdjust="spacingAndGlyphs" textLength="367" x="333" y="23.708">Business Network Definition for 'base.cto'</text><!--cluster composer.base--><polygon fill="#FFFFFF" filter="url(#f1biwa2baqp84a)" points="14,88.9531,142,88.9531,149,111.25,709,111.25,709,509.9531,14,509.9531,14,88.9531" style="stroke: #000000; stroke-width: 1.5;"/><line style="stroke: #000000; stroke-width: 1.5;" x1="14" x2="149" y1="111.25" y2="111.25"/><text fill="#000000" font-family="sans-serif" font-size="14" font-weight="bold" lengthAdjust="spacingAndGlyphs" textLength="122" x="18" y="103.9482">composer.base</text><!--cluster org.hyperledger.composer.system--><polygon fill="#FFFFFF" filter="url(#f1biwa2baqp84a)" points="717,369.4531,998,369.4531,1005,391.75,1008,391.75,1008,452.4531,717,452.4531,717,369.4531" style="stroke: #000000; stroke-width: 1.5;"/><line style="stroke: #000000; stroke-width: 1.5;" x1="717" x2="1005" y1="391.75" y2="391.75"/><text fill="#000000" font-family="sans-serif" font-size="14" font-weight="bold" lengthAdjust="spacingAndGlyphs" textLength="275" x="721" y="384.4482">org.hyperledger.composer.system</text><!--class composer.base.Gender--><rect fill="#FEFECE" filter="url(#f1biwa2baqp84a)" height="86.4141" id="composer.base.Gender" style="stroke: #A80036; stroke-width: 1.5;" width="89" x="21.5" y="154.4531"/><ellipse cx="36.5" cy="170.4531" fill="#808080" rx="11" ry="11" style="stroke: #A80036; stroke-width: 1.0;"/><path d="M40.6094,176.4531 L32.8906,176.4531 L32.8906,164.0625 L40.6094,164.0625 L40.6094,166.2188 L35.3438,166.2188 L35.3438,168.8906 L40.1094,168.8906 L40.1094,171.0469 L35.3438,171.0469 L35.3438,174.2969 L40.6094,174.2969 L40.6094,176.4531 Z "/><text fill="#000000" font-family="sans-serif" font-size="16" lengthAdjust="spacingAndGlyphs" textLength="57" x="50.5" y="175.9922">Gender</text><line style="stroke: #A80036; stroke-width: 1.5;" x1="22.5" x2="109.5" y1="186.4531" y2="186.4531"/><ellipse cx="32.5" cy="198.3555" fill="none" rx="3" ry="3" style="stroke: #038048; stroke-width: 1.0;"/><text fill="#000000" font-family="sans-serif" font-size="11" lengthAdjust="spacingAndGlyphs" textLength="29" x="41.5" y="200.6636">MALE</text><ellipse cx="32.5" cy="211.1602" fill="none" rx="3" ry="3" style="stroke: #038048; stroke-width: 1.0;"/><text fill="#000000" font-family="sans-serif" font-size="11" lengthAdjust="spacingAndGlyphs" textLength="42" x="41.5" y="213.4683">FEMALE</text><ellipse cx="32.5" cy="223.9648" fill="none" rx="3" ry="3" style="stroke: #038048; stroke-width: 1.0;"/><text fill="#000000" font-family="sans-serif" font-size="11" lengthAdjust="spacingAndGlyphs" textLength="38" x="41.5" y="226.2729">OTHER</text><line style="stroke: #A80036; stroke-width: 1.5;" x1="22.5" x2="109.5" y1="232.8672" y2="232.8672"/><!--class composer.base.Person--><rect fill="#FEFECE" filter="url(#f1biwa2baqp84a)" height="163.2422" id="composer.base.Person" style="stroke: #A80036; stroke-width: 1.5;" width="192" x="146" y="115.9531"/><ellipse cx="210.25" cy="131.9531" fill="#ADD8E6" rx="11" ry="11" style="stroke: #A80036; stroke-width: 1.0;"/><path d="M210.0469,127.625 L210.0469,131.25 L211.0469,131.25 Q212.25,131.25 212.7344,130.8438 Q213.2188,130.4375 213.2188,129.4375 Q213.2188,128.4375 212.7344,128.0313 Q212.25,127.625 211.0469,127.625 L210.0469,127.625 Z M207.5938,125.5625 L210.9531,125.5625 Q213.5156,125.5625 214.6406,126.4844 Q215.7656,127.3906 215.7656,129.4375 Q215.7656,131.4844 214.6406,132.4063 Q213.5156,133.3125 210.9531,133.3125 L210.0469,133.3125 L210.0469,137.9531 L207.5938,137.9531 L207.5938,125.5625 Z "/><text fill="#000000" font-family="sans-serif" font-size="16" lengthAdjust="spacingAndGlyphs" textLength="55" x="230.75" y="137.4922">Person</text><line style="stroke: #A80036; stroke-width: 1.5;" x1="147" x2="337" y1="147.9531" y2="147.9531"/><ellipse cx="157" cy="159.8555" fill="none" rx="3" ry="3" style="stroke: #038048; stroke-width: 1.0;"/><text fill="#000000" font-family="sans-serif" font-size="11" lengthAdjust="spacingAndGlyphs" textLength="59" x="166" y="162.1636">String title</text><ellipse cx="157" cy="172.6602" fill="none" rx="3" ry="3" style="stroke: #038048; stroke-width: 1.0;"/><text fill="#000000" font-family="sans-serif" font-size="11" lengthAdjust="spacingAndGlyphs" textLength="94" x="166" y="174.9683">String firstName</text><ellipse cx="157" cy="185.4648" fill="none" rx="3" ry="3" style="stroke: #038048; stroke-width: 1.0;"/><text fill="#000000" font-family="sans-serif" font-size="11" lengthAdjust="spacingAndGlyphs" textLength="92" x="166" y="187.7729">String lastName</text><ellipse cx="157" cy="198.2695" fill="none" rx="3" ry="3" style="stroke: #038048; stroke-width: 1.0;"/><text fill="#000000" font-family="sans-serif" font-size="11" lengthAdjust="spacingAndGlyphs" textLength="124" x="166" y="200.5776">String[] middleNames</text><ellipse cx="157" cy="211.0742" fill="none" rx="3" ry="3" style="stroke: #038048; stroke-width: 1.0;"/><text fill="#000000" font-family="sans-serif" font-size="11" lengthAdjust="spacingAndGlyphs" textLength="86" x="166" y="213.3823">Gender gender</text><ellipse cx="157" cy="223.8789" fill="none" rx="3" ry="3" style="stroke: #038048; stroke-width: 1.0;"/><text fill="#000000" font-family="sans-serif" font-size="11" lengthAdjust="spacingAndGlyphs" textLength="115" x="166" y="226.187">String[] nationalities</text><ellipse cx="157" cy="236.6836" fill="none" rx="3" ry="3" style="stroke: #038048; stroke-width: 1.0;"/><text fill="#000000" font-family="sans-serif" font-size="11" lengthAdjust="spacingAndGlyphs" textLength="166" x="166" y="238.9917">ContactDetails contactDetails</text><ellipse cx="157" cy="249.4883" fill="none" rx="3" ry="3" style="stroke: #038048; stroke-width: 1.0;"/><text fill="#000000" font-family="sans-serif" font-size="11" lengthAdjust="spacingAndGlyphs" textLength="135" x="166" y="251.7964">BirthDetails birthDetails</text><ellipse cx="157" cy="262.293" fill="none" rx="3" ry="3" style="stroke: #038048; stroke-width: 1.0;"/><text fill="#000000" font-family="sans-serif" font-size="11" lengthAdjust="spacingAndGlyphs" textLength="147" x="166" y="264.6011">DeathDetails deathDetails</text><line style="stroke: #A80036; stroke-width: 1.5;" x1="147" x2="337" y1="271.1953" y2="271.1953"/><!--class composer.base.ContactDetails--><rect fill="#FEFECE" filter="url(#f1biwa2baqp84a)" height="99.2188" id="composer.base.ContactDetails" style="stroke: #A80036; stroke-width: 1.5;" width="144" x="373" y="147.9531"/><ellipse cx="388" cy="163.9531" fill="#ADD1B2" rx="11" ry="11" style="stroke: #A80036; stroke-width: 1.0;"/><path d="M390.9688,169.5938 Q390.3906,169.8906 389.75,170.0313 Q389.1094,170.1875 388.4063,170.1875 Q385.9063,170.1875 384.5781,168.5469 Q383.2656,166.8906 383.2656,163.7656 Q383.2656,160.6406 384.5781,158.9844 Q385.9063,157.3281 388.4063,157.3281 Q389.1094,157.3281 389.75,157.4844 Q390.4063,157.6406 390.9688,157.9375 L390.9688,160.6563 Q390.3438,160.0781 389.75,159.8125 Q389.1563,159.5313 388.5313,159.5313 Q387.1875,159.5313 386.5,160.6094 Q385.8125,161.6719 385.8125,163.7656 Q385.8125,165.8594 386.5,166.9375 Q387.1875,168 388.5313,168 Q389.1563,168 389.75,167.7344 Q390.3438,167.4531 390.9688,166.875 L390.9688,169.5938 Z "/><text fill="#000000" font-family="sans-serif" font-size="16" lengthAdjust="spacingAndGlyphs" textLength="112" x="402" y="169.4922">ContactDetails</text><line style="stroke: #A80036; stroke-width: 1.5;" x1="374" x2="516" y1="179.9531" y2="179.9531"/><ellipse cx="384" cy="191.8555" fill="none" rx="3" ry="3" style="stroke: #038048; stroke-width: 1.0;"/><text fill="#000000" font-family="sans-serif" font-size="11" lengthAdjust="spacingAndGlyphs" textLength="69" x="393" y="194.1636">String email</text><ellipse cx="384" cy="204.6602" fill="none" rx="3" ry="3" style="stroke: #038048; stroke-width: 1.0;"/><text fill="#000000" font-family="sans-serif" font-size="11" lengthAdjust="spacingAndGlyphs" textLength="111" x="393" y="206.9683">String mobilePhone</text><ellipse cx="384" cy="217.4648" fill="none" rx="3" ry="3" style="stroke: #038048; stroke-width: 1.0;"/><text fill="#000000" font-family="sans-serif" font-size="11" lengthAdjust="spacingAndGlyphs" textLength="105" x="393" y="219.7729">String homePhone</text><ellipse cx="384" cy="230.2695" fill="none" rx="3" ry="3" style="stroke: #038048; stroke-width: 1.0;"/><text fill="#000000" font-family="sans-serif" font-size="11" lengthAdjust="spacingAndGlyphs" textLength="98" x="393" y="232.5776">Address address</text><line style="stroke: #A80036; stroke-width: 1.5;" x1="374" x2="516" y1="239.1719" y2="239.1719"/><!--class composer.base.BirthDetails--><rect fill="#FEFECE" filter="url(#f1biwa2baqp84a)" height="73.6094" id="composer.base.BirthDetails" style="stroke: #A80036; stroke-width: 1.5;" width="149" x="552.5" y="160.4531"/><ellipse cx="580.55" cy="176.4531" fill="#ADD1B2" rx="11" ry="11" style="stroke: #A80036; stroke-width: 1.0;"/><path d="M583.5188,182.0938 Q582.9406,182.3906 582.3,182.5313 Q581.6594,182.6875 580.9563,182.6875 Q578.4563,182.6875 577.1281,181.0469 Q575.8156,179.3906 575.8156,176.2656 Q575.8156,173.1406 577.1281,171.4844 Q578.4563,169.8281 580.9563,169.8281 Q581.6594,169.8281 582.3,169.9844 Q582.9563,170.1406 583.5188,170.4375 L583.5188,173.1563 Q582.8938,172.5781 582.3,172.3125 Q581.7063,172.0313 581.0813,172.0313 Q579.7375,172.0313 579.05,173.1094 Q578.3625,174.1719 578.3625,176.2656 Q578.3625,178.3594 579.05,179.4375 Q579.7375,180.5 581.0813,180.5 Q581.7063,180.5 582.3,180.2344 Q582.8938,179.9531 583.5188,179.375 L583.5188,182.0938 Z "/><text fill="#000000" font-family="sans-serif" font-size="16" lengthAdjust="spacingAndGlyphs" textLength="88" x="597.45" y="181.9922">BirthDetails</text><line style="stroke: #A80036; stroke-width: 1.5;" x1="553.5" x2="700.5" y1="192.4531" y2="192.4531"/><ellipse cx="563.5" cy="204.3555" fill="none" rx="3" ry="3" style="stroke: #038048; stroke-width: 1.0;"/><text fill="#000000" font-family="sans-serif" font-size="11" lengthAdjust="spacingAndGlyphs" textLength="123" x="572.5" y="206.6636">DateTime dateOfBirth</text><ellipse cx="563.5" cy="217.1602" fill="none" rx="3" ry="3" style="stroke: #038048; stroke-width: 1.0;"/><text fill="#000000" font-family="sans-serif" font-size="11" lengthAdjust="spacingAndGlyphs" textLength="108" x="572.5" y="219.4683">String placeOfBirth</text><line style="stroke: #A80036; stroke-width: 1.5;" x1="553.5" x2="700.5" y1="226.0625" y2="226.0625"/><!--class composer.base.DeathDetails--><rect fill="#FEFECE" filter="url(#f1biwa2baqp84a)" height="73.6094" id="composer.base.DeathDetails" style="stroke: #A80036; stroke-width: 1.5;" width="155" x="22.5" y="383.4531"/><ellipse cx="49.2" cy="399.4531" fill="#ADD1B2" rx="11" ry="11" style="stroke: #A80036; stroke-width: 1.0;"/><path d="M52.1688,405.0938 Q51.5906,405.3906 50.95,405.5313 Q50.3094,405.6875 49.6063,405.6875 Q47.1063,405.6875 45.7781,404.0469 Q44.4656,402.3906 44.4656,399.2656 Q44.4656,396.1406 45.7781,394.4844 Q47.1063,392.8281 49.6063,392.8281 Q50.3094,392.8281 50.95,392.9844 Q51.6063,393.1406 52.1688,393.4375 L52.1688,396.1563 Q51.5438,395.5781 50.95,395.3125 Q50.3563,395.0313 49.7313,395.0313 Q48.3875,395.0313 47.7,396.1094 Q47.0125,397.1719 47.0125,399.2656 Q47.0125,401.3594 47.7,402.4375 Q48.3875,403.5 49.7313,403.5 Q50.3563,403.5 50.95,403.2344 Q51.5438,402.9531 52.1688,402.375 L52.1688,405.0938 Z "/><text fill="#000000" font-family="sans-serif" font-size="16" lengthAdjust="spacingAndGlyphs" textLength="97" x="65.8" y="404.9922">DeathDetails</text><line style="stroke: #A80036; stroke-width: 1.5;" x1="23.5" x2="176.5" y1="415.4531" y2="415.4531"/><ellipse cx="33.5" cy="427.3555" fill="none" rx="3" ry="3" style="stroke: #038048; stroke-width: 1.0;"/><text fill="#000000" font-family="sans-serif" font-size="11" lengthAdjust="spacingAndGlyphs" textLength="129" x="42.5" y="429.6636">DateTime dateOfDeath</text><ellipse cx="33.5" cy="440.1602" fill="none" rx="3" ry="3" style="stroke: #038048; stroke-width: 1.0;"/><text fill="#000000" font-family="sans-serif" font-size="11" lengthAdjust="spacingAndGlyphs" textLength="114" x="42.5" y="442.4683">String placeOfDeath</text><line style="stroke: #A80036; stroke-width: 1.5;" x1="23.5" x2="176.5" y1="449.0625" y2="449.0625"/><!--class composer.base.Address--><rect fill="#FEFECE" filter="url(#f1biwa2baqp84a)" height="163.2422" id="composer.base.Address" style="stroke: #A80036; stroke-width: 1.5;" width="188" x="213" y="338.9531"/><ellipse cx="270.25" cy="354.9531" fill="#ADD1B2" rx="11" ry="11" style="stroke: #A80036; stroke-width: 1.0;"/><path d="M273.2188,360.5938 Q272.6406,360.8906 272,361.0313 Q271.3594,361.1875 270.6563,361.1875 Q268.1563,361.1875 266.8281,359.5469 Q265.5156,357.8906 265.5156,354.7656 Q265.5156,351.6406 266.8281,349.9844 Q268.1563,348.3281 270.6563,348.3281 Q271.3594,348.3281 272,348.4844 Q272.6563,348.6406 273.2188,348.9375 L273.2188,351.6563 Q272.5938,351.0781 272,350.8125 Q271.4063,350.5313 270.7813,350.5313 Q269.4375,350.5313 268.75,351.6094 Q268.0625,352.6719 268.0625,354.7656 Q268.0625,356.8594 268.75,357.9375 Q269.4375,359 270.7813,359 Q271.4063,359 272,358.7344 Q272.5938,358.4531 273.2188,357.875 L273.2188,360.5938 Z "/><text fill="#000000" font-family="sans-serif" font-size="16" lengthAdjust="spacingAndGlyphs" textLength="65" x="290.75" y="360.4922">Address</text><line style="stroke: #A80036; stroke-width: 1.5;" x1="214" x2="400" y1="370.9531" y2="370.9531"/><ellipse cx="224" cy="382.8555" fill="none" rx="3" ry="3" style="stroke: #038048; stroke-width: 1.0;"/><text fill="#000000" font-family="sans-serif" font-size="11" lengthAdjust="spacingAndGlyphs" textLength="57" x="233" y="385.1636">String city</text><ellipse cx="224" cy="395.6602" fill="none" rx="3" ry="3" style="stroke: #038048; stroke-width: 1.0;"/><text fill="#000000" font-family="sans-serif" font-size="11" lengthAdjust="spacingAndGlyphs" textLength="80" x="233" y="397.9683">String country</text><ellipse cx="224" cy="408.4648" fill="none" rx="3" ry="3" style="stroke: #038048; stroke-width: 1.0;"/><text fill="#000000" font-family="sans-serif" font-size="11" lengthAdjust="spacingAndGlyphs" textLength="77" x="233" y="410.7729">String locality</text><ellipse cx="224" cy="421.2695" fill="none" rx="3" ry="3" style="stroke: #038048; stroke-width: 1.0;"/><text fill="#000000" font-family="sans-serif" font-size="11" lengthAdjust="spacingAndGlyphs" textLength="74" x="233" y="423.5776">String region</text><ellipse cx="224" cy="434.0742" fill="none" rx="3" ry="3" style="stroke: #038048; stroke-width: 1.0;"/><text fill="#000000" font-family="sans-serif" font-size="11" lengthAdjust="spacingAndGlyphs" textLength="72" x="233" y="436.3823">String street</text><ellipse cx="224" cy="446.8789" fill="none" rx="3" ry="3" style="stroke: #038048; stroke-width: 1.0;"/><text fill="#000000" font-family="sans-serif" font-size="11" lengthAdjust="spacingAndGlyphs" textLength="79" x="233" y="449.187">String street2</text><ellipse cx="224" cy="459.6836" fill="none" rx="3" ry="3" style="stroke: #038048; stroke-width: 1.0;"/><text fill="#000000" font-family="sans-serif" font-size="11" lengthAdjust="spacingAndGlyphs" textLength="79" x="233" y="461.9917">String street3</text><ellipse cx="224" cy="472.4883" fill="none" rx="3" ry="3" style="stroke: #038048; stroke-width: 1.0;"/><text fill="#000000" font-family="sans-serif" font-size="11" lengthAdjust="spacingAndGlyphs" textLength="102" x="233" y="474.7964">String postalCode</text><ellipse cx="224" cy="485.293" fill="none" rx="3" ry="3" style="stroke: #038048; stroke-width: 1.0;"/><text fill="#000000" font-family="sans-serif" font-size="11" lengthAdjust="spacingAndGlyphs" textLength="162" x="233" y="487.6011">String postOfficeBoxNumber</text><line style="stroke: #A80036; stroke-width: 1.5;" x1="214" x2="400" y1="494.1953" y2="494.1953"/><!--class org.hyperledger.composer.system.Participant--><rect fill="#FEFECE" filter="url(#f1biwa2baqp84a)" height="48" id="org.hyperledger.composer.system.Participant" style="stroke: #A80036; stroke-width: 1.5;" width="114" x="725" y="396.4531"/><ellipse cx="740" cy="412.4531" fill="#ADD1B2" rx="11" ry="11" style="stroke: #A80036; stroke-width: 1.0;"/><path d="M742.9688,418.0938 Q742.3906,418.3906 741.75,418.5313 Q741.1094,418.6875 740.4063,418.6875 Q737.9063,418.6875 736.5781,417.0469 Q735.2656,415.3906 735.2656,412.2656 Q735.2656,409.1406 736.5781,407.4844 Q737.9063,405.8281 740.4063,405.8281 Q741.1094,405.8281 741.75,405.9844 Q742.4063,406.1406 742.9688,406.4375 L742.9688,409.1563 Q742.3438,408.5781 741.75,408.3125 Q741.1563,408.0313 740.5313,408.0313 Q739.1875,408.0313 738.5,409.1094 Q737.8125,410.1719 737.8125,412.2656 Q737.8125,414.3594 738.5,415.4375 Q739.1875,416.5 740.5313,416.5 Q741.1563,416.5 741.75,416.2344 Q742.3438,415.9531 742.9688,415.375 L742.9688,418.0938 Z "/><text fill="#000000" font-family="sans-serif" font-size="16" lengthAdjust="spacingAndGlyphs" textLength="82" x="754" y="417.9922">Participant</text><line style="stroke: #A80036; stroke-width: 1.5;" x1="726" x2="838" y1="428.4531" y2="428.4531"/><line style="stroke: #A80036; stroke-width: 1.5;" x1="726" x2="838" y1="436.4531" y2="436.4531"/><!--link composer.base.Person to org.hyperledger.composer.system.Participant--><path d="M338.2267,270.5655 C344.0986,273.6563 350.0435,276.4859 356,278.9531 C506.2658,341.1922 576.7611,256.5724 717,338.9531 C733.5998,348.7044 747.6274,364.4238 758.3542,379.4679 " fill="none" id="composer.base.Person-org.hyperledger.composer.system.Participant" style="stroke: #A80036; stroke-width: 1.0;"/><polygon fill="none" points="764.3444,375.8391,769.3867,396.42,752.6105,383.4755,764.3444,375.8391" style="stroke: #A80036; stroke-width: 1.0;"/><!--link composer.base.Gender to composer.base.ContactDetails--><!--link composer.base.ContactDetails to composer.base.BirthDetails--><!--link composer.base.Gender to composer.base.DeathDetails--><!--link composer.base.DeathDetails to composer.base.Address--><text fill="#888888" font-family="sans-serif" font-size="10" lengthAdjust="spacingAndGlyphs" textLength="122" x="912" y="537.2354">Thu, Nov 22, '18 at 09:07</text><!--
@startuml composer
skinparam class {
  Font {
    Color Black
    Style Plain
    Size 16
  }
}
skinparam title {
  BackgroundColor LightYellow
  BorderThickness 0.5
  BorderRoundCorner 6
  FontColor Black
  FontSize 18
}
title
Business Network Definition for 'base.cto'
end title
class composer.base.Gender << (E,grey) >> {
   + MALE
   + FEMALE
   + OTHER
}
class composer.base.Person << (P,lightblue) >> {
   + String title
   + String firstName
   + String lastName
   + String[] middleNames
   + Gender gender
   + String[] nationalities
   + ContactDetails contactDetails
   + BirthDetails birthDetails
   + DeathDetails deathDetails
}
composer.base.Person - -|> org.hyperledger.composer.system.Participant
class composer.base.ContactDetails {
   + String email
   + String mobilePhone
   + String homePhone
   + Address address
}
class composer.base.BirthDetails {
   + DateTime dateOfBirth
   + String placeOfBirth
}
class composer.base.DeathDetails {
   + DateTime dateOfDeath
   + String placeOfDeath
}
class composer.base.Address {
   + String city
   + String country
   + String locality
   + String region
   + String street
   + String street2
   + String street3
   + String postalCode
   + String postOfficeBoxNumber
}
right footer Thu, Nov 22, '18 at 09:07
@enduml

PlantUML version 1.2018.12(Sun Oct 21 17:15:15 ICT 2018)
(GPL source distribution)
Java Runtime: OpenJDK Runtime Environment
JVM: OpenJDK 64-Bit Server VM
Java Version: 10.0.2+13-Ubuntu-1ubuntu0.18.04.3
Operating System: Linux
OS Version: 4.15.0-39-generic
Default Encoding: UTF-8
Language: en
Country: US
--></g></svg>